<svg version="1.2" xmlns="http://www.w3.org/2000/svg" viewBox="0 0 334 111" width="334" height="111"><style></style><path  d="m60.3 87.6l1.2-6.3-2.8-2.9h-10.2l-4.1 1.2-6-0.8-3.3 0.8-0.9-2.8v-27.3l-3-7.7-1-12.5-1.1-1.5-8.5 0.7-1.9 2.8v12l-2.4 12.1v23.4l0.6 7.1 1.5 2.9 3.1-0.7 10.2 0.9 3.9-1.1 13.1 0.9 5.3-1.8zm13.5-45.7q0.9 0 1.5 0.7 0.8 0.8 1.3 1.8 0.6 1 1.1 1.7 0.5 0.8 0.9 0.8 1.3-0.2 3.8-1 2.6-0.9 5.7-1.8 3.1-0.9 6-1.5 3-0.6 4.9-0.6 1 0 1.4 0.4 0.5 0.3 0.6 0.8 0.2 0.6 0.3 1.1 0.2 0.3 0.9 0.6 0.2 0.4 0.7 0.7 0.5 0.3 0.5 1.1-0.6 1.5-0.7 2.8-0.1 1.3-0.1 2.4v0.8l-3.7 0.3q-0.9 0.1-1.8 0.2-0.8 0-2 0l-3.8 2.1q-1.6 0-2.7 0.4-1.2 0.3-2.4 0.9-1.2 0.5-2.7 1.1-1.5 0.7-4 1.3-6 3-9.1 7.3-2.9 4.3-2.9 10.6 0 2 1.4 4 1.4 1.9 3.4 3.6 2 1.5 4.2 2.5 2.1 0.9 3.8 0.9 1.8 0 3.5 0.1 1.6 0 3.3 0h6.9 0.1q0.3 0 0.4-0.3 0.2-0.4 0.5-0.7 0.4-0.5 1.1-0.8 0.9-0.4 2.4-0.4 1.7 0 3.4 1 1.8 0.9 3.1 0.9 1 0 1.8-0.1 0.9-0.1 1.8-0.4 1-0.2 2.3-0.4 1.2-0.2 2.9-0.2 0.3 0.6 1.4 1.1h1.7q0.1-0.6 0.5-1.1 0.4-0.6 0.9-1.6-0.1-2.9-0.4-5.2-0.1-2.3-0.2-4.3 0-2.1-0.2-4.4 0-2.3-0.1-5.2h0.4q0.1-0.1 0.3-0.1-0.4 0-0.7-1-0.2-1-0.4-2-0.1-1.2-0.2-2 0-1 0-1-0.1-1.1-0.5-1.6-0.3-0.6-0.6-1.3-0.3-0.9-0.7-2.4-0.2-1.5-0.3-5-0.4-0.2-0.7-1.5-0.2-1.2-0.5-2.6-0.1-1.5-0.2-2.8 0-1.4-0.2-1.6h-0.2q-1 0-1.7-1.2-0.6-1.1-1.1-2.5-0.5-1.4-0.9-2.4-0.3-1.1-0.8-1.1-0.3-0.3-0.6-0.5-0.2-0.4-0.5-0.6h-2q-1.2 0-2.1 0-0.8 0-1.5 0-0.7 0-1.4-0.2-0.8-0.1-1.9-0.3-0.1 0.6-1.5 0.8-1.3 0.2-2.9 0.2-1.5 0-2.9 0-1.3 0-1.4 0.3-3.4 1.2-6.2 1.9-2.7 0.8-4.6 1.7-1.9 0.7-3.2 1.9-1.2 1-1.9 2.9zm27.4 21.1v6.5q-0.7 2-0.8 4.1-0.1 2.2-0.1 3.2v1h-1.8q-2.5 0.2-4.6 0.4-2.2 0.1-4.2 0.2l-8.8 0.5q-0.9-1.5-1.5-2.4-0.5-0.9-0.5-2.6 0-3.6 0.8-5.6 1.1-2 2.7-3 1.8-1.1 4-1.6 2.3-0.5 4.8-1.2 1.3-0.4 2.3-0.6 1.1-0.3 2.1-0.3h0.5q1.3 0.4 2.6 0.8 1.3 0.4 2.5 0.6zm71.8-8.5l-6.8-3.1-2.7 0.5h-2-1.1q-0.8 0-0.8-0.2l-7.4-0.6v-0.9l-2-8v-5.6q0.6 0 0.6-0.7 0-0.7-0.5-2.1-0.4-1.4-0.4-3.3v-0.7l-2.2-1.8h-6.5l-2.2 2.1v32.8l-2.4 0.4 0.7 0.4v22.1l0.5 2.8h1.9l1.4-1h8.3l5.6 1.6q1.1 0 2.6-0.2 1.5-0.3 2.9-1l10.5-3.5q1.2-0.6 3.3-1.9 2-1.4 3.9-3.2 2-1.9 3.4-4 1.4-2.2 1.4-4.1 0-3.5-0.6-5.9-0.5-2.4-1.6-4.3-1.1-1.8-3-3.4-1.9-1.6-4.8-3.2zm-19.4 12.9v-7.3l2.3-0.5q0.7-0.2 1.3-0.3 0.7-0.3 1.4-0.6h0.5q0.9 0 2.4 0.4 1.5 0.3 3.2 0.7 1.6 0.3 3.1 0.8 1.5 0.5 2.3 0.9 0.6 0.4 2.1 2.3 1.6 1.8 1.6 4.5 0 1-0.5 1.8-0.6 0.7-1.3 1.4-0.8 0.6-1.5 1.2-0.8 0.7-1.2 1.4-1.8 0.5-3.2 1-1.4 0.5-2.7 0.9-1.2 0.3-2.6 0.5-1.3 0.1-2.8 0.1-0.5 0-0.9 0-0.4 0-1-0.1h-1.6v-3.3zm80.4-12.9l-6.8-3.1-2.7 0.5h-2-1.1q-0.8 0-0.8-0.2l-7.4-0.6v-0.9l-2-8v-5.6q0.6 0 0.6-0.7 0-0.7-0.5-2.1-0.4-1.4-0.4-3.3v-0.7l-2.2-1.8h-6.5l-2.2 2.1v32.8l-2.4 0.4 0.7 0.4v22.1l0.5 2.8h1.9l1.4-1h8.3l5.6 1.6q1.1 0 2.6-0.2 1.5-0.3 2.9-1l10.5-3.6q1.2-0.5 3.2-1.8 2.1-1.4 3.9-3.2 2.1-1.9 3.4-4 1.4-2.2 1.4-4.1 0-3.5-0.5-5.9-0.5-2.4-1.6-4.3-1.1-1.9-3-3.4-1.9-1.6-4.8-3.2zm-19.4 12.9v-7.3l2.2-0.5q0.8-0.2 1.4-0.4 0.7-0.2 1.4-0.5h0.5q0.9 0 2.4 0.4 1.5 0.3 3.2 0.7 1.6 0.3 3.1 0.8 1.5 0.5 2.3 0.9 0.6 0.4 2.1 2.3 1.5 1.7 1.5 4.5 0 1-0.5 1.8-0.5 0.7-1.2 1.4-0.8 0.6-1.5 1.2-0.8 0.7-1.2 1.4-1.9 0.5-3.3 1-1.3 0.5-2.6 0.9-1.3 0.3-2.6 0.5-1.3 0.1-2.8 0.1-0.5 0-0.9 0-0.4 0-1-0.1h-1.6v-3.3zm102.4 4.4v-6.5l-0.8-0.6-11.4 0.8-1.2-1v-30.8l-2.1-2.6h-8.8v34.6l-11.1 1.5-1.5-1.7q0-3.5-0.1-6.4 0-2.9-0.2-5.7 0-2.9-0.1-5.9-0.1-3-0.1-6.8 0-1.7 0-3.4 0.1-1.6 0.1-3.1 0-1.5-0.1-2.8 0-1.4-0.1-2.5h-11.9l-2.8 1.6v45.2l0.4 1.9 23.2-1.5 2.1-0.4v13.2l0.7 1.8h12.1v-16.6l10.2-1.2z"/></svg>