<svg version="1.2" xmlns="http://www.w3.org/2000/svg" viewBox="0 0 400 400" width="400" height="400">
	<style>
		.s0 { fill: #000000 } 
		.s1 { fill: #ffff00;stroke: #000000;stroke-miterlimit:100;stroke-width: 4.1 } 
		.s2 { fill: #ffffff;stroke: #000000;stroke-miterlimit:100;stroke-width: 3.2 } 
	</style>
	<path id="Form 1" class="s0" d=""/>
	<path id="Form 2" fill-rule="evenodd" class="s1" d="m199.5 324c-68.85 0-124.5-55.65-124.5-124.5 0-68.85 55.65-124.5 124.5-124.5 68.85 0 124.5 55.65 124.5 124.5 0 68.85-55.65 124.5-124.5 124.5z"/>
	<path id="Lager 1" class="s2" d="m162 200c-11.61 0-21-14.53-21-32.5 0-17.97 9.39-32.5 21-32.5 11.61 0 21 14.53 21 32.5 0 17.97-9.39 32.5-21 32.5zm0 0c-11.61 0-21-14.53-21-32.5 0-17.97 9.39-32.5 21-32.5 11.61 0 21 14.53 21 32.5 0 17.97-9.39 32.5-21 32.5z"/>
	<path id="Lager 1 copy" class="s2" d="m229 200c-11.61 0-21-14.53-21-32.5 0-17.97 9.39-32.5 21-32.5 11.61 0 21 14.53 21 32.5 0 17.97-9.39 32.5-21 32.5zm0 0c-11.61 0-21-14.53-21-32.5 0-17.97 9.39-32.5 21-32.5 11.61 0 21 14.53 21 32.5 0 17.97-9.39 32.5-21 32.5z"/>
	<path id="Lager 2" class="s0" d="m167 189c-4.42 0-8-7.15-8-16 0-8.85 3.58-16 8-16 4.42 0 8 7.15 8 16 0 8.85-3.58 16-8 16zm-88.55 10.49l-4.9 1.02-31.5-152.55 4.9-1.01z"/>
	<path id="Lager 3" fill-rule="evenodd" class="s0" d="m136 228.39c0 0 1.34 5.11 11.1 10.29 7.27 1.69 17.04 3.08 28.47 4.02 11.91 0.55 24.69 0.84 37.22 0.98 12.02 0.08 23.4 0.18 33.43 0.32 9.39 0.17 17.61 0.33 24.24 0.42 12.18-0.2 19.48-0.83 19.48-0.83 0 0-4.97 2.69-11.65 6.33-3.12 1.72-6.74 3.68-10.74 5.77-4.36 2.11-9.66 4.39-15.91 6.73-7.51 2.39-16.57 4.81-26.7 7.07-11.93 2.22-24.82 4.18-37.31 5.72-29.12 2.47-51.63 3.4-51.63 3.4 0 0-5.48-5.65-8.62-21.77 1.17-17.79 8.62-28.45 8.62-28.45z"/>
	<path id="Lager 2 copy" class="s0" d="m225 189c-4.42 0-8-7.15-8-16 0-8.85 3.58-16 8-16 4.42 0 8 7.15 8 16 0 8.85-3.58 16-8 16zm-53 72.93l55.5 7.57-55.5 7.57z"/>
	<path id="Lager 4" fill-rule="evenodd" class="s0" d="m363.59 63.79l4.82 1.32-42 153-4.82-1.32z"/>
</svg>